<svg width="32" height="32" viewBox="0 0 32 32" fill="none" xmlns="http://www.w3.org/2000/svg">
<rect width="32" height="32" rx="16" fill="#060606"/>
<path d="M26.9368 16.1963C26.9047 16.1222 26.1283 14.3606 24.4022 12.5953C22.1023 10.2431 19.1973 9 16 9C12.8027 9 9.89774 10.2431 7.59783 12.5953C5.87174 14.3606 5.09166 16.125 5.06324 16.1963C5.02154 16.2922 5 16.396 5 16.5009C5 16.6059 5.02154 16.7097 5.06324 16.8056C5.09532 16.8797 5.87174 18.6403 7.59783 20.4056C9.89774 22.7569 12.8027 24 16 24C19.1973 24 22.1023 22.7569 24.4022 20.4056C26.1283 18.6403 26.9047 16.8797 26.9368 16.8056C26.9785 16.7097 27 16.6059 27 16.5009C27 16.396 26.9785 16.2922 26.9368 16.1963ZM16 20.25C15.2748 20.25 14.5659 20.0301 13.9629 19.618C13.3599 19.206 12.89 18.6203 12.6124 17.9351C12.3349 17.2498 12.2623 16.4958 12.4038 15.7684C12.5453 15.041 12.8945 14.3728 13.4073 13.8483C13.9201 13.3239 14.5734 12.9667 15.2847 12.8221C15.9959 12.6774 16.7332 12.7516 17.4032 13.0355C18.0732 13.3193 18.6458 13.7999 19.0487 14.4166C19.4516 15.0333 19.6667 15.7583 19.6667 16.5C19.6667 17.4946 19.2804 18.4484 18.5927 19.1517C17.9051 19.8549 16.9725 20.25 16 20.25Z" fill="#F8E581"/>
</svg>
