<svg width="33" height="32" viewBox="0 0 33 32" fill="none" xmlns="http://www.w3.org/2000/svg">
<rect x="0.0864258" width="32" height="32" rx="16" fill="#060606"/>
<path fill-rule="evenodd" clip-rule="evenodd" d="M17.5864 23.3217C19.3867 23.069 21.038 22.1431 22.2334 20.7159C23.4289 19.2887 24.0873 17.4572 24.0864 15.5617V12.9565H22.0864V15.5617C22.0864 17.0839 21.507 18.5436 20.4755 19.6199C19.4441 20.6962 18.0451 21.3009 16.5864 21.3009C15.1277 21.3009 13.7288 20.6962 12.6973 19.6199C11.6659 18.5436 11.0864 17.0839 11.0864 15.5617V12.9565H9.08643V15.5617C9.08555 17.4572 9.74398 19.2887 10.9394 20.7159C12.1349 22.1431 13.7861 23.069 15.5864 23.3217V26H17.5864V23.3217ZM16.5864 6C15.7024 6 14.8545 6.36646 14.2294 7.01876C13.6043 7.67106 13.2531 8.55577 13.2531 9.47826V15.5652C13.2531 16.4877 13.6043 17.3724 14.2294 18.0247C14.8545 18.677 15.7024 19.0435 16.5864 19.0435C17.4705 19.0435 18.3183 18.677 18.9434 18.0247C19.5686 17.3724 19.9198 16.4877 19.9198 15.5652V9.47826C19.9198 8.55577 19.5686 7.67106 18.9434 7.01876C18.3183 6.36646 17.4705 6 16.5864 6Z" fill="#F8E581"/>
</svg>
