<svg width="33" height="32" viewBox="0 0 33 32" fill="none" xmlns="http://www.w3.org/2000/svg">
<rect x="0.0864258" width="32" height="32" rx="16" fill="#060606"/>
<path d="M16.0864 25C15.3864 25 14.7948 24.7583 14.3114 24.275C13.8281 23.7917 13.5864 23.2 13.5864 22.5C13.5864 21.8 13.8281 21.2083 14.3114 20.725C14.7948 20.2417 15.3864 20 16.0864 20C16.7864 20 17.3781 20.2417 17.8614 20.725C18.3448 21.2083 18.5864 21.8 18.5864 22.5C18.5864 23.2 18.3448 23.7917 17.8614 24.275C17.3781 24.7583 16.7864 25 16.0864 25ZM10.4364 19.35L8.33643 17.2C9.31976 16.2167 10.4741 15.4377 11.7994 14.863C13.1248 14.2883 14.5538 14.0007 16.0864 14C17.6191 13.9993 19.0484 14.291 20.3744 14.875C21.7004 15.459 22.8544 16.2507 23.8364 17.25L21.7364 19.35C21.0031 18.6167 20.1531 18.0417 19.1864 17.625C18.2198 17.2083 17.1864 17 16.0864 17C14.9864 17 13.9531 17.2083 12.9864 17.625C12.0198 18.0417 11.1698 18.6167 10.4364 19.35ZM6.18643 15.1L4.08643 13C5.61976 11.4333 7.41143 10.2083 9.46143 9.325C11.5114 8.44167 13.7198 8 16.0864 8C18.4531 8 20.6614 8.44167 22.7114 9.325C24.7614 10.2083 26.5531 11.4333 28.0864 13L25.9864 15.1C24.7031 13.8167 23.2158 12.8127 21.5244 12.088C19.8331 11.3633 18.0204 11.0007 16.0864 11C14.1524 10.9993 12.3401 11.362 10.6494 12.088C8.95876 12.814 7.47109 13.818 6.18643 15.1Z" fill="#F8E581"/>
</svg>
