<svg width="33" height="32" viewBox="0 0 33 32" fill="none" xmlns="http://www.w3.org/2000/svg">
<rect x="0.169922" width="32" height="32" rx="16" fill="#060606"/>
<path d="M11.6699 15.1C11.1381 15.1 10.6114 14.9952 10.1201 14.7917C9.62869 14.5882 9.18222 14.2899 8.80614 13.9138C8.43006 13.5377 8.13174 13.0912 7.92821 12.5999C7.72468 12.1085 7.61992 11.5819 7.61992 11.05C7.61992 10.5181 7.72468 9.9915 7.92821 9.50013C8.13174 9.00876 8.43006 8.56229 8.80614 8.18622C9.18222 7.81014 9.62869 7.51182 10.1201 7.30829C10.6114 7.10476 11.1381 7 11.6699 7C12.744 7 13.7742 7.4267 14.5337 8.18622C15.2932 8.94574 15.7199 9.97587 15.7199 11.05C15.7199 12.1241 15.2932 13.1543 14.5337 13.9138C13.7742 14.6733 12.744 15.1 11.6699 15.1ZM21.1199 18.7C20.1651 18.7 19.2495 18.3207 18.5743 17.6456C17.8992 16.9705 17.5199 16.0548 17.5199 15.1C17.5199 14.1452 17.8992 13.2295 18.5743 12.5544C19.2495 11.8793 20.1651 11.5 21.1199 11.5C22.0747 11.5 22.9904 11.8793 23.6655 12.5544C24.3406 13.2295 24.7199 14.1452 24.7199 15.1C24.7199 16.0548 24.3406 16.9705 23.6655 17.6456C22.9904 18.3207 22.0747 18.7 21.1199 18.7ZM21.1199 19.6C22.194 19.6 23.2242 20.0267 23.9837 20.7862C24.7432 21.5457 25.1699 22.5759 25.1699 23.65V24.1H17.0699V23.65C17.0699 22.5759 17.4966 21.5457 18.2561 20.7862C19.0157 20.0267 20.0458 19.6 21.1199 19.6ZM11.6699 16C12.2609 16 12.846 16.1164 13.392 16.3425C13.938 16.5687 14.434 16.9002 14.8519 17.318C15.2698 17.7359 15.6012 18.232 15.8274 18.7779C16.0535 19.3239 16.1699 19.9091 16.1699 20.5V24.1H7.16992V20.5C7.16992 19.3065 7.64403 18.1619 8.48794 17.318C9.33186 16.4741 10.4764 16 11.6699 16Z" fill="#F8E581"/>
</svg>
