<svg width="33" height="32" viewBox="0 0 33 32" fill="none" xmlns="http://www.w3.org/2000/svg">
<rect x="0.169922" width="32" height="32" rx="16" fill="#060606"/>
<path d="M16.171 18.8535L18.6846 17.4275V14.5745L16.1715 13.1484L13.6584 14.5749V17.4275L16.171 18.8535Z" fill="#F8E581"/>
<path d="M9.48189 15.9027V10.0029C7.28966 10.3011 6.54667 12.3708 6.3634 13.0399C5.90995 14.7007 6.21639 16.8163 7.67904 17.6474L12.9878 20.659L15.178 19.4165L9.73022 16.3258C9.57626 16.2385 9.48189 16.0769 9.48189 15.9027Z" fill="#F8E581"/>
<path d="M12.9138 10.258L18.1148 7.30786C16.7574 5.59049 14.5597 5.9936 13.8783 6.1727C12.1872 6.61779 10.4752 7.93497 10.4752 9.59232V15.6209L12.6655 16.8634V10.6811C12.6655 10.5069 12.7598 10.3449 12.9138 10.258Z" fill="#F8E581"/>
<path d="M12.9878 21.7103C12.9019 21.7103 12.8165 21.6883 12.7395 21.6449L7.53903 18.6948C6.71061 20.7088 8.16382 22.3755 8.66296 22.8654C9.90012 24.0806 11.916 24.8781 13.3757 24.0499L18.6849 21.0383V18.5537L13.2366 21.6449C13.1597 21.6883 13.0737 21.7103 12.9883 21.7103H12.9878Z" fill="#F8E581"/>
<path d="M22.8617 16.0986V21.9979C25.0509 21.6968 25.7934 19.6271 25.9762 18.9575C26.4291 17.2967 26.1237 15.1826 24.6645 14.3544L19.3553 11.3428L17.165 12.5853L22.6128 15.676C22.7668 15.7628 22.8612 15.9244 22.8612 16.0986H22.8617Z" fill="#F8E581"/>
<path d="M23.6804 9.13452C22.4433 7.91933 20.4269 7.12238 18.9677 7.95007L13.6584 10.9617V13.4462L19.1067 10.3551C19.2607 10.2677 19.4499 10.2677 19.6034 10.3551L24.8039 13.3052C25.6328 11.2916 24.1796 9.6245 23.6804 9.13452Z" fill="#F8E581"/>
<path d="M19.4301 21.7422L14.2291 24.6923C15.5865 26.4092 17.7842 26.0066 18.4656 25.8275C20.1567 25.3824 21.8687 24.0652 21.8687 22.4079V16.3792L19.6784 15.1367V21.3191C19.6784 21.4933 19.5841 21.6553 19.4301 21.7422Z" fill="#F8E581"/>
</svg>
